PathFileType	4	(X/Y/Z)	C:/Users/beibeiliu/ov580/test_trc/User2\sequence.29_training_dense_right.trc
DataRate	CameraRate	NumFrames	NumMarkers	Units	OrigDataRate	OrigDataStartFrame	OrigNumFrames
120	120	8	19	mm	120	92	365
Frame#	Time	ThumbCMC			ThumbMCP			ThumbIP			ThumbTip			IndexMCP			IndexPIP			IndexTip			MiddleMCP			MiddlePIP			MiddleTip			RingMCP			RingPIP			RingTip			PinkyMCP			PinkyPIP			PinkyTip			BackHand1			BackHand2			BackHand3	
		X0	Y0	Z0	X1	Y1	Z1	X2	Y2	Z2	X3	Y3	Z3	X4	Y4	Z4	X5	Y5	Z5	X6	Y6	Z6	X7	Y7	Z7	X8	Y8	Z8	X9	Y9	Z9	X10	Y10	Z10	X11	Y11	Z11	X12	Y12	Z12	X13	Y13	Z13	X14	Y14	Z14	X15	Y15	Z15	X16	Y16	Z16	X17	Y17	Z17	X18	Y18	Z18	
91	0.758333	132.663	-27.1782	77.1376	145.896	-17.0813	46.8098	147.68	-4.8483	19.7214	148.349	5.0032	-5.53191	85.087	-50.7327	12.2185	71.5969	-51.1432	-17.6683	53.6283	-40.5873	-38.6657	58.3228	-59.6763	19.6678	34.415	-54.6441	-10.9924	15.2389	-30.8362	-27.5255	38.928	-55.607	33.4245	14.2776	-46.4192	11.9639	5.46348	-21.4622	-3.83885	21.6809	-39.8919	63.8264	0.152	-22.4954	45.0812	-6.78139	-1.15553	33.2764	69.5787	-59.7483	78.6023	86.6156	-63.3633	110.282	110.058	-55.8347	77.575	
92	0.766667	134.187	-27.9677	74.4508	142.128	-16.9574	49.4573	149.634	-5.7815	17.9936	144.146	3.99403	-4.64563	87.4282	-50.2977	10.9603	72.7106	-52.9111	-17.9231	53.2612	-44.0802	-38.5245	58.4962	-60.1914	19.5131	36.9764	-56.0806	-10.2856	12.2683	-39.9911	-26.0852	39.5117	-55.579	34.1714	17.5689	-51.8084	16.4261	-2.32915	-26.72	-4.99104	19.5602	-41.304	62.1815	2.45951	-28.8003	48.5868	-11.6104	-5.9077	33.0326	70.1984	-60.8561	80.9203	86.8321	-64.8292	112.262	109.063	-55.4521	77.6632	
93	0.775	132.687	-27.5914	74.5547	144.192	-15.1794	48.6578	145.901	-6.26816	13.5547	147.643	5.33924	-7.7374	85.572	-50.1206	11.64	74.2849	-52.4469	-16.51	50.9199	-44.3584	-39.0734	59.8624	-58.8783	19.3957	31.9657	-57.0098	-9.2544	11.7796	-40.423	-30.8	36.5267	-55.0711	34.3145	16.5866	-50.5808	16.3343	0.912855	-33.3337	-4.76851	20.582	-40.2404	62.5985	-1.29801	-27.8469	50.1804	-15.105	-7.20409	34.842	66.8064	-61.0843	80.5086	90.3937	-62.3687	110.779	107.305	-57.7065	73.7354	
94	0.783333	131.073	-23.7742	76.6139	142.135	-12.2764	49.5881	146.357	-3.04473	13.0336	142.433	7.58379	-10.6277	80.4771	-48.7583	10.8492	67.7666	-51.0088	-18.3219	53.5176	-41.4819	-41.4716	55.9427	-58.0861	18.0454	31.5097	-54.6254	-10.6472	9.29039	-36.2169	-31.2802	33.6353	-54.3367	34.4894	12.7643	-47.7437	16.2788	-4.53607	-28.4514	-3.11348	22.8003	-38.3402	61.5858	-0.854041	-24.9514	46.7913	-16.2061	-1.66998	32.223	65.8031	-57.3603	80.5107	83.6072	-60.9354	106.507	109.026	-55.2434	75.57	
95	0.791667	132.396	-23.167	72.9102	142.944	-11.9604	47.4682	144.147	-1.56151	10.8239	139.85	8.32069	-7.80928	83.5893	-47.0461	11.3346	67.387	-49.4856	-17.7596	52.0894	-38.5581	-40.5451	53.633	-57.2735	21.6162	31.7837	-53.2527	-9.80751	8.94703	-30.1174	-26.286	35.7658	-52.3338	34.8971	13.6206	-43.9238	14.6261	-1.63329	-17.9392	-1.0703	20.5218	-37.8729	60.0141	-2.62473	-19.7583	45.9323	-10.1288	3.71027	35.01	68.3878	-58.4572	79.5689	84.7563	-61.6959	107.019	103.151	-54.5606	73.4917	
96	0.8	133.367	-22.5803	71.8648	136.374	-11.2796	45.6786	142.347	-0.410247	15.5541	140.474	9.91174	-8.65946	84.5119	-46.8625	10.3196	71.8939	-48.0322	-16.9412	48.8811	-37.9402	-36.8663	53.8968	-56.6926	15.6418	27.7707	-48.8912	-7.30606	12.417	-20.3783	-20.4406	33.7138	-50.5077	37.3935	11.0667	-35.7062	13.8771	6.34225	-4.21424	2.99016	19.3557	-38.3179	64.43	2.08625	-17.1405	43.0361	-4.61845	7.49466	36.2838	70.7225	-56.6835	81.0744	88.0308	-60.512	105.493	107.861	-53.4119	76.443	
97	0.808333	135.352	-24.4153	72.4091	138.805	-14.7052	48.0064	147.452	-2.96251	15.9928	140.524	6.96542	-7.79086	83.2195	-51.2886	13.1088	69.3277	-50.6895	-15.5154	49.2643	-36.7951	-35.8902	54.6477	-59.3794	16.3817	31.2298	-46.6621	-6.47277	16.6881	-9.63801	-10.1638	32.6338	-51.9711	34.4974	12.5757	-36.0696	19.238	10.6718	-0.201808	16.2185	23.5592	-40.6251	61.6352	2.10774	-16.3459	46.8939	4.92388	13.411	40.8301	69.0251	-60.3653	81.2784	89.0047	-64.8952	106.751	109.198	-55.86	74.6937	
98	0.816667	136.846	-23.8628	74.7512	142.883	-12.4593	49.4295	144.665	-2.70379	17.0567	143.198	7.65519	-9.93439	82.9861	-51.8046	12.8072	67.3119	-52.183	-14.9741	50.2164	-34.0376	-38.3011	52.626	-60.1933	18.6184	27.3358	-42.056	-4.6633	22.508	-6.89285	-2.60742	35.0148	-52.8109	37.0926	15.0937	-34.8581	19.3586	18.164	0.0367158	22.2371	22.0611	-42.4283	65.1628	7.49457	-16.3482	43.1161	15.076	12.1507	43.8741	73.677	-60.416	81.067	90.7026	-64.5424	109.806	110.062	-55.0474	71.6506	
